<?xml version="1.0" encoding="utf-8"?>
<?xml-stylesheet type="text/xsl" href="rss1.xsl"?>
<rss version="2.0" xmlns:atom="http://www.w3.org/2005/Atom" xmlns:content="http://purl.org/rss/1.0/modules/content/" xmlns:dc="http://purl.org/dc/elements/1.1/" xmlns:media="http://search.yahoo.com/mrss/">
<channel>
 <title>Getty</title>
 <link>http://www.gettyimg.com/</link>
 <atom:link href="http://www.gettyimg.com/" rel="self" type="application/rss+xml" />

 
                <item>
                <title><![CDATA[【Live Audios (lossy)】MP3 - Avril Lavigne Glastonbury]]></title>
                <link><![CDATA[https://sharemania.us/threads/avril-lavigne-glastonbury.248596/]]></link>
                <description><![CDATA[<article>
<blockquote class="messageText SelectQuoteContainer ugc baseHtml">
<div class="bbCodeBlock bbCodeVfcHH HiddenContent">
<div class="attribution type">Hidden Content:</div>
<blockquote>You must reply before you can see the hidden data contained here.</blockquote>
</div>
<div class="messageTextEndMarker">&nbsp;</div>
</blockquote>
</article>]]></description>
                <author><![CDATA[brendo098]]></author>
                </item>

                
                <item>
                <title><![CDATA[【Requests】[REQ AUD] - No Rap Versions of "Knock You Down" and "Turnin Me On" by Keri Hilson]]></title>
                <link><![CDATA[https://sharemania.us/threads/no-rap-versions-of-knock-you-down-and-turnin-me-on-by-keri-hilson.248597/]]></link>
                <description><![CDATA[<article>
<blockquote class="messageText SelectQuoteContainer ugc baseHtml">
Hello everyone,<br>
<br>
I'm still searching for a No Rap Version of Keri Hilson's "Knock You Down". I heard a version once on New York's WPLJ radio stations. The version eliminated Kanye's rap and included the bridge from the Album Version (which was cut by the regular Radio Edit). Does anyone have a copy of it or a No Rap Version of "Knock You Down"?<br>
<br>
I also saw on Discogs that a No Rap Version of the song "Turnin' Me On" also exists. Does anyone have a copy?<br>
<br>
It would be greatly appreciated.
<div class="messageTextEndMarker">&nbsp;</div>
</blockquote>
</article>]]></description>
                <author><![CDATA[pwner14]]></author>
                </item>

                
                <item>
                <title><![CDATA[【Music Videos】Depeche Mode - Behind The Wheel (1080p 5.1) VJ-RoGeRs Video Edit (Clean)]]></title>
                <link><![CDATA[https://sharemania.us/threads/depeche-mode-behind-the-wheel-1080p-5-1-vj-rogers-video-edit-clean.248598/]]></link>
                <description><![CDATA[<article>
<blockquote class="messageText SelectQuoteContainer ugc baseHtml">
<img src="https://i.ibb.co/p065Xc0/Depeche-Mode-Behind-The-Wheel-1080p-5-1-VJ-Ro-Ge-Rs-Video-Edit-mp4-thumbs-2024-07-02-22-23-29.jpg" class="bbCodeImage LbImage" alt="[​IMG]" data-url="https://i.ibb.co/p065Xc0/Depeche-Mode-Behind-The-Wheel-1080p-5-1-VJ-Ro-Ge-Rs-Video-Edit-mp4-thumbs-2024-07-02-22-23-29.jpg" style=""> <br>
<br>
<div class="ToggleTriggerAnchor bbCodeSpoilerContainer">
<button type="button" class="button bbCodeSpoilerButton ToggleTrigger Tooltip JsOnly" data-target="> .SpoilerTarget"><span>Spoiler: <span class="SpoilerTitle">MediaInfo</span></span></button>
<div class="SpoilerTarget bbCodeSpoilerText">Depeche Mode - Behind The Wheel (1080p 5.1) VJ-RoGeRs Video Edit.mp4<br>
Format : MPEG-4<br>
Format profile : Base Media / Version 2<br>
Codec ID : mp42 (mp42/mp41)<br>
File size : 467 MiB<br>
Duration : 5 min 17 s<br>
Overall bit rate mode : Variable<br>
Overall bit rate : 12.3 Mb/s<br>
Frame rate : 30.000 FPS<br>
Encoded date : 2024-07-02 18:57:45 UTC<br>
Tagged date : 2024-07-02 19:52:35 UTC<br>
TIM : 00:00:00:00<br>
TSC : 30<br>
TSZ : 1<br>
<br>
Video<br>
ID : 1<br>
Format : AVC<br>
Format/Info : Advanced Video Codec<br>
Format profile : Main@L4.1<br>
Format settings : CABAC / 4 Ref Frames<br>
Format settings, CABAC : Yes<br>
Format settings, Reference : 4 frames<br>
Codec ID : avc1<br>
Codec ID/Info : Advanced Video Coding<br>
Duration : 5 min 17 s<br>
Bit rate : 12.0 Mb/s<br>
Width : 1 920 pixels<br>
Height : 1 080 pixels<br>
Display aspect ratio : 16:9<br>
Frame rate mode : Constant<br>
Frame rate : 30.000 FPS<br>
Color space : YUV<br>
Chroma subsampling : 4:2:0<br>
Bit depth : 8 bits<br>
Scan type : Progressive<br>
Bits/(Pixel*Frame) : 0.193<br>
Stream size : 455 MiB (97%)<br>
Language : English<br>
Encoded date : 2024-07-02 18:57:56 UTC<br>
Tagged date : 2024-07-02 18:57:56 UTC<br>
Color range : Limited<br>
Color primaries : BT.709<br>
Transfer characteristics : BT.709<br>
Matrix coefficients : BT.709<br>
Codec configuration box : avcC<br>
<br>
Audio<br>
ID : 2<br>
Format : AAC LC<br>
Format/Info : Advanced Audio Codec Low Complexity<br>
Codec ID : mp4a-40-2<br>
Duration : 5 min 17 s<br>
Source duration : 5 min 17 s<br>
Bit rate mode : Variable<br>
Bit rate : 317 kb/s<br>
Maximum bit rate : 362 kb/s<br>
Channel(s) : 6 channels<br>
Channel layout : C L R Ls Rs LFE<br>
Sampling rate : 48.0 kHz<br>
Frame rate : 46.875 FPS (1024 SPF)<br>
Compression mode : Lossy<br>
Stream size : 12.0 MiB (3%)<br>
Source stream size : 12.0 MiB (3%)<br>
Language : English<br>
Encoded date : 2024-07-02 18:57:52 UTC<br>
Tagged date : 2024-07-02 18:57:52 UTC</div>
</div><br>
<div class="bbCodeBlock bbCodeVfcHH HiddenContent">
<div class="attribution type">Hidden Content:</div>
<blockquote>You must reply before you can see the hidden data contained here.</blockquote>
</div>
<div class="messageTextEndMarker">&nbsp;</div>
</blockquote>
</article>]]></description>
                <author><![CDATA[DJ-RoGeRs-BS]]></author>
                </item>

                </channel></rss>